<?xml version="1.0" encoding="UTF-8" standalone="no"?>
<!DOCTYPE svg PUBLIC "-//W3C//DTD SVG 1.1//EN"
 "http://www.w3.org/Graphics/SVG/1.1/DTD/svg11.dtd">
<!-- Generated by graphviz version 2.40.1 (20161225.0304)
 -->
<!-- Pages: 1 -->
<svg width="1911pt" height="961pt"
 viewBox="0.00 0.00 1911.38 961.00" xmlns="http://www.w3.org/2000/svg" xmlns:xlink="http://www.w3.org/1999/xlink">
<g id="graph0" class="graph" transform="scale(1 1) rotate(0) translate(4 957)">
<polygon fill="#ffffff" stroke="transparent" points="-4,4 -4,-957 1907.3761,-957 1907.3761,4 -4,4"/>
<!-- El Catón Compostelano -->
<g id="node1" class="node">
<title>El Catón Compostelano</title>
<ellipse fill="none" stroke="#000000" cx="1206.2381" cy="-677.6409" rx="106.543" ry="18"/>
<text text-anchor="middle" x="1206.2381" y="-673.4409" font-family="Times,serif" font-size="14.00" fill="#000000">El Catón Compostelano</text>
</g>
<!-- El Catón Compostelano&#45;&gt;El Catón Compostelano -->
<g id="edge1" class="edge">
<title>El Catón Compostelano&#45;&gt;El Catón Compostelano</title>
<path fill="none" stroke="#000000" d="M1306.8841,-683.6983C1321.172,-682.7186 1330.7596,-680.6995 1330.7596,-677.6409 1330.7596,-675.3708 1325.4783,-673.6734 1316.9139,-672.5484"/>
<polygon fill="#000000" stroke="#000000" points="1317.1734,-669.0573 1306.8841,-671.5834 1316.5029,-676.0252 1317.1734,-669.0573"/>
</g>
<!-- El Curioso Entretenido -->
<g id="node2" class="node">
<title>El Curioso Entretenido</title>
<ellipse fill="none" stroke="#000000" cx="1420.2381" cy="-402.6409" rx="100.1607" ry="18"/>
<text text-anchor="middle" x="1420.2381" y="-398.4409" font-family="Times,serif" font-size="14.00" fill="#000000">El Curioso Entretenido</text>
</g>
<!-- El Curioso Entretenido&#45;&gt;El Curioso Entretenido -->
<g id="edge2" class="edge">
<title>El Curioso Entretenido&#45;&gt;El Curioso Entretenido</title>
<path fill="none" stroke="#000000" d="M1514.7366,-408.7643C1528.8039,-407.8109 1538.3184,-405.7698 1538.3184,-402.6409 1538.3184,-400.3431 1533.1872,-398.632 1524.8898,-397.5075"/>
<polygon fill="#000000" stroke="#000000" points="1525.029,-394.0045 1514.7366,-396.5175 1524.3497,-400.9715 1525.029,-394.0045"/>
</g>
<!-- El Regañón general -->
<g id="node3" class="node">
<title>El Regañón general</title>
<ellipse fill="none" stroke="#000000" cx="919.3051" cy="-686.4051" rx="93.7417" ry="18"/>
<text text-anchor="middle" x="919.3051" y="-682.2051" font-family="Times,serif" font-size="14.00" fill="#000000">El Regañón general</text>
</g>
<!-- El Regañón general&#45;&gt;El Regañón general -->
<g id="edge4" class="edge">
<title>El Regañón general&#45;&gt;El Regañón general</title>
<path fill="none" stroke="#000000" d="M1007.2748,-692.6212C1021.3153,-691.7115 1030.9259,-689.6395 1030.9259,-686.4051 1030.9259,-684.0299 1025.7428,-682.2815 1017.4286,-681.16"/>
<polygon fill="#000000" stroke="#000000" points="1017.5626,-677.6569 1007.2748,-680.1891 1016.8962,-684.6252 1017.5626,-677.6569"/>
</g>
<!-- El Filosofo à la Moda -->
<g id="node4" class="node">
<title>El Filosofo à la Moda</title>
<ellipse fill="none" stroke="#000000" cx="1106.8895" cy="-922.9912" rx="96.6903" ry="18"/>
<text text-anchor="middle" x="1106.8895" y="-918.7912" font-family="Times,serif" font-size="14.00" fill="#000000">El Filosofo à la Moda</text>
</g>
<!-- El Regañón general&#45;&gt;El Filosofo à la Moda -->
<g id="edge3" class="edge">
<title>El Regañón general&#45;&gt;El Filosofo à la Moda</title>
<path fill="none" stroke="#000000" d="M933.7131,-704.5768C966.7334,-746.2228 1047.9725,-848.6836 1086.2743,-896.9907"/>
<polygon fill="#000000" stroke="#000000" points="1083.7338,-899.4201 1092.6892,-905.0814 1089.2189,-895.071 1083.7338,-899.4201"/>
</g>
<!-- Il Caffè -->
<g id="node5" class="node">
<title>Il Caffè</title>
<ellipse fill="none" stroke="#000000" cx="928.2438" cy="-934.8577" rx="44.5981" ry="18"/>
<text text-anchor="middle" x="928.2438" y="-930.6577" font-family="Times,serif" font-size="14.00" fill="#000000">Il Caffè</text>
</g>
<!-- El Regañón general&#45;&gt;Il Caffè -->
<g id="edge5" class="edge">
<title>El Regañón general&#45;&gt;Il Caffè</title>
<path fill="none" stroke="#000000" d="M919.9624,-704.6745C921.5057,-747.5698 925.37,-854.9799 927.2224,-906.467"/>
<polygon fill="#000000" stroke="#000000" points="923.7282,-906.694 927.5856,-916.5616 930.7237,-906.4422 923.7282,-906.694"/>
</g>
<!-- Le Misantrope -->
<g id="node6" class="node">
<title>Le Misantrope</title>
<ellipse fill="none" stroke="#000000" cx="647.2017" cy="-596.9144" rx="67.7352" ry="18"/>
<text text-anchor="middle" x="647.2017" y="-592.7144" font-family="Times,serif" font-size="14.00" fill="#000000">Le Misantrope</text>
</g>
<!-- El Regañón general&#45;&gt;Le Misantrope -->
<g id="edge6" class="edge">
<title>El Regañón general&#45;&gt;Le Misantrope</title>
<path fill="none" stroke="#000000" d="M871.9083,-670.8171C823.8022,-654.9957 749.5039,-630.5601 699.6553,-614.1656"/>
<polygon fill="#000000" stroke="#000000" points="700.6195,-610.7984 690.0266,-610.9989 698.4325,-617.448 700.6195,-610.7984"/>
</g>
<!-- The Spectator -->
<g id="node7" class="node">
<title>The Spectator</title>
<ellipse fill="none" stroke="#000000" cx="1019.2557" cy="-414.7949" rx="64.8658" ry="18"/>
<text text-anchor="middle" x="1019.2557" y="-410.5949" font-family="Times,serif" font-size="14.00" fill="#000000">The Spectator</text>
</g>
<!-- El Regañón general&#45;&gt;The Spectator -->
<g id="edge7" class="edge">
<title>El Regañón general&#45;&gt;The Spectator</title>
<path fill="none" stroke="#000000" d="M926.0183,-668.1623C943.1597,-621.5816 988.628,-498.0241 1009.0603,-442.5003"/>
<polygon fill="#000000" stroke="#000000" points="1012.4027,-443.5519 1012.5716,-432.9584 1005.8334,-441.1344 1012.4027,-443.5519"/>
</g>
<!-- Le Misantrope&#45;&gt;Le Misantrope -->
<g id="edge29" class="edge">
<title>Le Misantrope&#45;&gt;Le Misantrope</title>
<path fill="none" stroke="#000000" d="M710.2992,-603.4271C723.3991,-602.7416 732.8192,-600.5707 732.8192,-596.9144 732.8192,-594.2865 727.9527,-592.4259 720.3513,-591.3327"/>
<polygon fill="#000000" stroke="#000000" points="720.5793,-587.8389 710.2992,-590.4018 719.9338,-594.8091 720.5793,-587.8389"/>
</g>
<!-- La Bagatelle -->
<g id="node8" class="node">
<title>La Bagatelle</title>
<ellipse fill="none" stroke="#000000" cx="861.2452" cy="-595.2817" rx="60.2071" ry="18"/>
<text text-anchor="middle" x="861.2452" y="-591.0817" font-family="Times,serif" font-size="14.00" fill="#000000">La Bagatelle</text>
</g>
<!-- Le Misantrope&#45;&gt;La Bagatelle -->
<g id="edge28" class="edge">
<title>Le Misantrope&#45;&gt;La Bagatelle</title>
<path fill="none" stroke="#000000" d="M711.4694,-602.6697C737.7822,-603.1228 768.2214,-602.9092 794.7588,-602.09"/>
<polygon fill="#000000" stroke="#000000" points="795.2289,-605.5759 805.1018,-601.7319 794.9867,-598.5801 795.2289,-605.5759"/>
</g>
<!-- La Bagatelle&#45;&gt;Le Misantrope -->
<g id="edge10" class="edge">
<title>La Bagatelle&#45;&gt;Le Misantrope</title>
<path fill="none" stroke="#000000" d="M804.1205,-589.6683C778.4183,-589.0872 747.7692,-589.19 720.4071,-589.9138"/>
<polygon fill="#000000" stroke="#000000" points="719.9894,-586.4246 710.0983,-590.2215 720.1983,-593.4215 719.9894,-586.4246"/>
</g>
<!-- La Bagatelle&#45;&gt;The Spectator -->
<g id="edge12" class="edge">
<title>La Bagatelle&#45;&gt;The Spectator</title>
<path fill="none" stroke="#000000" d="M876.6836,-577.6473C904.7675,-545.5685 964.31,-477.5563 996.8582,-440.3783"/>
<polygon fill="#000000" stroke="#000000" points="999.8009,-442.3305 1003.7546,-432.501 994.5341,-437.7195 999.8009,-442.3305"/>
</g>
<!-- La Bagatelle&#45;&gt;La Bagatelle -->
<g id="edge8" class="edge">
<title>La Bagatelle&#45;&gt;La Bagatelle</title>
<path fill="none" stroke="#000000" d="M917.4115,-601.8669C930.0815,-601.2737 939.3486,-599.0786 939.3486,-595.2817 939.3486,-592.612 934.7671,-590.7343 927.6426,-589.6484"/>
<polygon fill="#000000" stroke="#000000" points="927.6928,-586.1381 917.4115,-588.6965 927.0443,-593.108 927.6928,-586.1381"/>
</g>
<!-- Le Censeur ou Caractères des Mœurs de la Haye -->
<g id="node9" class="node">
<title>Le Censeur ou Caractères des Mœurs de la Haye</title>
<ellipse fill="none" stroke="#000000" cx="615.1534" cy="-536.9343" rx="201.8506" ry="18"/>
<text text-anchor="middle" x="615.1534" y="-532.7343" font-family="Times,serif" font-size="14.00" fill="#000000">Le Censeur ou Caractères des Mœurs de la Haye</text>
</g>
<!-- La Bagatelle&#45;&gt;Le Censeur ou Caractères des Mœurs de la Haye -->
<g id="edge9" class="edge">
<title>La Bagatelle&#45;&gt;Le Censeur ou Caractères des Mœurs de la Haye</title>
<path fill="none" stroke="#000000" d="M814.0874,-584.1008C780.7643,-576.2 735.2583,-565.4107 696.179,-556.1452"/>
<polygon fill="#000000" stroke="#000000" points="696.9311,-552.7265 686.3934,-553.825 695.3161,-559.5377 696.9311,-552.7265"/>
</g>
<!-- Le Nouveau Spectateur français -->
<g id="node10" class="node">
<title>Le Nouveau Spectateur français</title>
<ellipse fill="none" stroke="#000000" cx="707.513" cy="-864.8444" rx="138.2847" ry="18"/>
<text text-anchor="middle" x="707.513" y="-860.6444" font-family="Times,serif" font-size="14.00" fill="#000000">Le Nouveau Spectateur français</text>
</g>
<!-- La Bagatelle&#45;&gt;Le Nouveau Spectateur français -->
<g id="edge11" class="edge">
<title>La Bagatelle&#45;&gt;Le Nouveau Spectateur français</title>
<path fill="none" stroke="#000000" d="M850.9197,-613.3871C824.4455,-659.8084 754.0398,-783.2616 722.8051,-838.0303"/>
<polygon fill="#000000" stroke="#000000" points="719.7073,-836.3973 717.7936,-846.8178 725.788,-839.8651 719.7073,-836.3973"/>
</g>
<!-- Le Censeur ou Caractères des Mœurs de la Haye&#45;&gt;Le Misantrope -->
<g id="edge24" class="edge">
<title>Le Censeur ou Caractères des Mœurs de la Haye&#45;&gt;Le Misantrope</title>
<path fill="none" stroke="#000000" d="M624.7689,-554.9303C627.3041,-559.675 630.0955,-564.8993 632.8227,-570.0033"/>
<polygon fill="#000000" stroke="#000000" points="629.7933,-571.7606 637.5929,-578.9311 635.9672,-568.4617 629.7933,-571.7606"/>
</g>
<!-- Le Censeur ou Caractères des Mœurs de la Haye&#45;&gt;The Spectator -->
<g id="edge26" class="edge">
<title>Le Censeur ou Caractères des Mœurs de la Haye&#45;&gt;The Spectator</title>
<path fill="none" stroke="#000000" d="M672.6222,-519.5644C750.7198,-495.9595 889.3365,-454.0628 965.4739,-431.0504"/>
<polygon fill="#000000" stroke="#000000" points="966.7806,-434.3119 975.3402,-428.0683 964.7552,-427.6113 966.7806,-434.3119"/>
</g>
<!-- Le Censeur ou Caractères des Mœurs de la Haye&#45;&gt;Le Censeur ou Caractères des Mœurs de la Haye -->
<g id="edge23" class="edge">
<title>Le Censeur ou Caractères des Mœurs de la Haye&#45;&gt;Le Censeur ou Caractères des Mœurs de la Haye</title>
<path fill="none" stroke="#000000" d="M808.3106,-542.1763C824.647,-541.0547 834.8286,-539.3073 834.8286,-536.9343 834.8286,-535.0989 828.7379,-533.6378 818.4196,-532.551"/>
<polygon fill="#000000" stroke="#000000" points="818.571,-529.0513 808.3106,-531.6923 817.9785,-536.0262 818.571,-529.0513"/>
</g>
<!-- Le Spectateur ou le Socrate moderne -->
<g id="node19" class="node">
<title>Le Spectateur ou le Socrate moderne</title>
<ellipse fill="none" stroke="#000000" cx="153.755" cy="-534.1553" rx="153.3332" ry="18"/>
<text text-anchor="middle" x="153.755" y="-529.9553" font-family="Times,serif" font-size="14.00" fill="#000000">Le Spectateur ou le Socrate moderne</text>
</g>
<!-- Le Censeur ou Caractères des Mœurs de la Haye&#45;&gt;Le Spectateur ou le Socrate moderne -->
<g id="edge25" class="edge">
<title>Le Censeur ou Caractères des Mœurs de la Haye&#45;&gt;Le Spectateur ou le Socrate moderne</title>
<path fill="none" stroke="#000000" d="M413.7841,-535.7215C381.4859,-535.5269 348.4082,-535.3277 317.1387,-535.1394"/>
<polygon fill="#000000" stroke="#000000" points="317.0741,-531.639 307.0531,-535.0786 317.0319,-538.6389 317.0741,-531.639"/>
</g>
<!-- La Gazzetta Veneta -->
<g id="node11" class="node">
<title>La Gazzetta Veneta</title>
<ellipse fill="none" stroke="#000000" cx="1407.2381" cy="-512.6409" rx="87.3344" ry="18"/>
<text text-anchor="middle" x="1407.2381" y="-508.4409" font-family="Times,serif" font-size="14.00" fill="#000000">La Gazzetta Veneta</text>
</g>
<!-- La Gazzetta Veneta&#45;&gt;La Gazzetta Veneta -->
<g id="edge13" class="edge">
<title>La Gazzetta Veneta&#45;&gt;La Gazzetta Veneta</title>
<path fill="none" stroke="#000000" d="M1489.253,-518.9146C1502.9523,-518.0368 1512.4051,-515.9456 1512.4051,-512.6409 1512.4051,-510.2398 1507.415,-508.4793 1499.4317,-507.3594"/>
<polygon fill="#000000" stroke="#000000" points="1499.5454,-503.854 1489.253,-506.3671 1498.8662,-510.821 1499.5454,-503.854"/>
</g>
<!-- La Pensadora Gaditana -->
<g id="node12" class="node">
<title>La Pensadora Gaditana</title>
<ellipse fill="none" stroke="#000000" cx="1200.9367" cy="-813.1734" rx="100.6824" ry="18"/>
<text text-anchor="middle" x="1200.9367" y="-808.9734" font-family="Times,serif" font-size="14.00" fill="#000000">La Pensadora Gaditana</text>
</g>
<!-- La Pensadora Gaditana&#45;&gt;La Pensadora Gaditana -->
<g id="edge15" class="edge">
<title>La Pensadora Gaditana&#45;&gt;La Pensadora Gaditana</title>
<path fill="none" stroke="#000000" d="M1295.844,-819.2968C1309.9722,-818.3435 1319.5278,-816.3023 1319.5278,-813.1734 1319.5278,-810.8756 1314.3744,-809.1645 1306.0411,-808.04"/>
<polygon fill="#000000" stroke="#000000" points="1306.1354,-804.5328 1295.844,-807.0501 1305.4589,-811.5 1306.1354,-804.5328"/>
</g>
<!-- El Pensador -->
<g id="node13" class="node">
<title>El Pensador</title>
<ellipse fill="none" stroke="#000000" cx="1371.3318" cy="-787.7155" rx="57.3628" ry="18"/>
<text text-anchor="middle" x="1371.3318" y="-783.5155" font-family="Times,serif" font-size="14.00" fill="#000000">El Pensador</text>
</g>
<!-- La Pensadora Gaditana&#45;&gt;El Pensador -->
<g id="edge14" class="edge">
<title>La Pensadora Gaditana&#45;&gt;El Pensador</title>
<path fill="none" stroke="#000000" d="M1278.1574,-801.6362C1288.592,-800.0773 1299.1875,-798.4942 1309.3107,-796.9818"/>
<polygon fill="#000000" stroke="#000000" points="1309.8798,-800.4357 1319.2528,-795.4964 1308.8454,-793.5125 1309.8798,-800.4357"/>
</g>
<!-- La Spectatrice danoise -->
<g id="node14" class="node">
<title>La Spectatrice danoise</title>
<ellipse fill="none" stroke="#000000" cx="888.8618" cy="-184.317" rx="98.3908" ry="18"/>
<text text-anchor="middle" x="888.8618" y="-180.117" font-family="Times,serif" font-size="14.00" fill="#000000">La Spectatrice danoise</text>
</g>
<!-- La Spectatrice danoise&#45;&gt;The Spectator -->
<g id="edge19" class="edge">
<title>La Spectatrice danoise&#45;&gt;The Spectator</title>
<path fill="none" stroke="#000000" d="M899.0936,-202.4022C921.9453,-242.7938 977.229,-340.5106 1004.0951,-387.9979"/>
<polygon fill="#000000" stroke="#000000" points="1001.101,-389.8136 1009.0714,-396.7937 1007.1935,-386.3666 1001.101,-389.8136"/>
</g>
<!-- La Spectatrice danoise&#45;&gt;La Spectatrice danoise -->
<g id="edge17" class="edge">
<title>La Spectatrice danoise&#45;&gt;La Spectatrice danoise</title>
<path fill="none" stroke="#000000" d="M981.5825,-190.472C995.7124,-189.5327 1005.3072,-187.481 1005.3072,-184.317 1005.3072,-181.9933 1000.1326,-180.2696 991.7875,-179.1459"/>
<polygon fill="#000000" stroke="#000000" points="991.8723,-175.6379 981.5825,-178.1619 991.2004,-182.6056 991.8723,-175.6379"/>
</g>
<!-- La Spectatrice -->
<g id="node15" class="node">
<title>La Spectatrice</title>
<ellipse fill="none" stroke="#000000" cx="658.5349" cy="-190.0264" rx="66.5661" ry="18"/>
<text text-anchor="middle" x="658.5349" y="-185.8264" font-family="Times,serif" font-size="14.00" fill="#000000">La Spectatrice</text>
</g>
<!-- La Spectatrice danoise&#45;&gt;La Spectatrice -->
<g id="edge16" class="edge">
<title>La Spectatrice danoise&#45;&gt;La Spectatrice</title>
<path fill="none" stroke="#000000" d="M791.1824,-186.7383C772.4415,-187.2028 753.0681,-187.6831 735.1102,-188.1282"/>
<polygon fill="#000000" stroke="#000000" points="734.9154,-184.6319 725.0052,-188.3787 735.0889,-191.6297 734.9154,-184.6319"/>
</g>
<!-- Le Mentor moderne -->
<g id="node16" class="node">
<title>Le Mentor moderne</title>
<ellipse fill="none" stroke="#000000" cx="1037.2312" cy="-134.6353" rx="88.0268" ry="18"/>
<text text-anchor="middle" x="1037.2312" y="-130.4353" font-family="Times,serif" font-size="14.00" fill="#000000">Le Mentor moderne</text>
</g>
<!-- La Spectatrice danoise&#45;&gt;Le Mentor moderne -->
<g id="edge18" class="edge">
<title>La Spectatrice danoise&#45;&gt;Le Mentor moderne</title>
<path fill="none" stroke="#000000" d="M936.2147,-168.4608C950.6154,-163.6387 966.5751,-158.2946 981.4757,-153.3051"/>
<polygon fill="#000000" stroke="#000000" points="982.7164,-156.5807 991.0876,-150.0865 980.4937,-149.9429 982.7164,-156.5807"/>
</g>
<!-- Le Mentor moderne&#45;&gt;Le Mentor moderne -->
<g id="edge27" class="edge">
<title>Le Mentor moderne&#45;&gt;Le Mentor moderne</title>
<path fill="none" stroke="#000000" d="M1120.1008,-140.909C1133.9429,-140.0312 1143.4943,-137.94 1143.4943,-134.6353 1143.4943,-132.2084 1138.3431,-130.4359 1130.1244,-129.3179"/>
<polygon fill="#000000" stroke="#000000" points="1130.3881,-125.8272 1120.1008,-128.3615 1129.7231,-132.7956 1130.3881,-125.8272"/>
</g>
<!-- La Spectatrice. Ouvrage traduit de l&#39;anglois -->
<g id="node17" class="node">
<title>La Spectatrice. Ouvrage traduit de l&#39;anglois</title>
<ellipse fill="none" stroke="#000000" cx="699.195" cy="-237.0507" rx="179.9347" ry="18"/>
<text text-anchor="middle" x="699.195" y="-232.8507" font-family="Times,serif" font-size="14.00" fill="#000000">La Spectatrice. Ouvrage traduit de l&#39;anglois</text>
</g>
<!-- La Spectatrice. Ouvrage traduit de l&#39;anglois&#45;&gt;The Spectator -->
<g id="edge21" class="edge">
<title>La Spectatrice. Ouvrage traduit de l&#39;anglois&#45;&gt;The Spectator</title>
<path fill="none" stroke="#000000" d="M731.3491,-254.9073C790.7278,-287.883 917.3216,-358.1863 981.0001,-393.5499"/>
<polygon fill="#000000" stroke="#000000" points="979.4817,-396.7101 989.9233,-398.5054 982.8802,-390.5904 979.4817,-396.7101"/>
</g>
<!-- La Spectatrice. Ouvrage traduit de l&#39;anglois&#45;&gt;La Spectatrice -->
<g id="edge20" class="edge">
<title>La Spectatrice. Ouvrage traduit de l&#39;anglois&#45;&gt;La Spectatrice</title>
<path fill="none" stroke="#000000" d="M683.591,-219.0044C682.5832,-217.8388 681.5591,-216.6544 680.5291,-215.4632"/>
<polygon fill="#000000" stroke="#000000" points="682.9502,-212.912 673.762,-207.6368 677.6551,-217.4905 682.9502,-212.912"/>
</g>
<!-- La Spettatrice -->
<g id="node18" class="node">
<title>La Spettatrice</title>
<ellipse fill="none" stroke="#000000" cx="501.2308" cy="-18.1641" rx="64.86" ry="18"/>
<text text-anchor="middle" x="501.2308" y="-13.9641" font-family="Times,serif" font-size="14.00" fill="#000000">La Spettatrice</text>
</g>
<!-- La Spettatrice&#45;&gt;La Spectatrice -->
<g id="edge22" class="edge">
<title>La Spettatrice&#45;&gt;La Spectatrice</title>
<path fill="none" stroke="#000000" d="M517.4726,-35.9091C545.5693,-66.6061 603.3215,-129.7031 635.5346,-164.8976"/>
<polygon fill="#000000" stroke="#000000" points="633.0478,-167.3645 642.3814,-172.378 638.2114,-162.6382 633.0478,-167.3645"/>
</g>
<!-- Le Spectateur ou le Socrate moderne&#45;&gt;Le Spectateur ou le Socrate moderne -->
<g id="edge45" class="edge">
<title>Le Spectateur ou le Socrate moderne&#45;&gt;Le Spectateur ou le Socrate moderne</title>
<path fill="none" stroke="#000000" d="M299.7495,-539.7698C315.2318,-538.6811 325.1716,-536.8096 325.1716,-534.1553 325.1716,-532.1438 319.4634,-530.5819 309.9606,-529.4696"/>
<polygon fill="#000000" stroke="#000000" points="310.0255,-525.9611 299.7495,-528.5408 309.3914,-532.9323 310.0255,-525.9611"/>
</g>
<!-- Le Monde -->
<g id="node20" class="node">
<title>Le Monde</title>
<ellipse fill="none" stroke="#000000" cx="1630.4539" cy="-682.0667" rx="50.9862" ry="18"/>
<text text-anchor="middle" x="1630.4539" y="-677.8667" font-family="Times,serif" font-size="14.00" fill="#000000">Le Monde</text>
</g>
<!-- Le Monde&#45;&gt;Le Monde -->
<g id="edge30" class="edge">
<title>Le Monde&#45;&gt;Le Monde</title>
<path fill="none" stroke="#000000" d="M1677.856,-688.747C1690.1652,-688.3364 1699.4469,-686.1096 1699.4469,-682.0667 1699.4469,-679.2239 1694.8582,-677.2791 1687.8548,-676.2322"/>
<polygon fill="#000000" stroke="#000000" points="1688.1155,-672.7418 1677.856,-675.3863 1687.5253,-679.7169 1688.1155,-672.7418"/>
</g>
<!-- Le Monde comme il est (Bastide) -->
<g id="node21" class="node">
<title>Le Monde comme il est (Bastide)</title>
<ellipse fill="none" stroke="#000000" cx="1744.8119" cy="-636.5446" rx="140.6283" ry="18"/>
<text text-anchor="middle" x="1744.8119" y="-632.3446" font-family="Times,serif" font-size="14.00" fill="#000000">Le Monde comme il est (Bastide)</text>
</g>
<!-- Le Monde&#45;&gt;Le Monde comme il est (Bastide) -->
<g id="edge31" class="edge">
<title>Le Monde&#45;&gt;Le Monde comme il est (Bastide)</title>
<path fill="none" stroke="#000000" d="M1673.1696,-672.0398C1684.445,-667.9429 1696.5213,-663.1285 1707.4881,-658.357"/>
<polygon fill="#000000" stroke="#000000" points="1709.0936,-661.4731 1716.792,-654.194 1706.2345,-655.0836 1709.0936,-661.4731"/>
</g>
<!-- Le Nouveau Spectateur (Bastide) -->
<g id="node22" class="node">
<title>Le Nouveau Spectateur (Bastide)</title>
<ellipse fill="none" stroke="#000000" cx="1370.776" cy="-577.8128" rx="139.4458" ry="18"/>
<text text-anchor="middle" x="1370.776" y="-573.6128" font-family="Times,serif" font-size="14.00" fill="#000000">Le Nouveau Spectateur (Bastide)</text>
</g>
<!-- Le Monde&#45;&gt;Le Nouveau Spectateur (Bastide) -->
<g id="edge32" class="edge">
<title>Le Monde&#45;&gt;Le Nouveau Spectateur (Bastide)</title>
<path fill="none" stroke="#000000" d="M1596.7717,-668.5442C1552.7178,-650.8576 1475.0637,-619.6816 1423.2619,-598.8845"/>
<polygon fill="#000000" stroke="#000000" points="1424.4882,-595.6053 1413.9041,-595.1276 1421.8801,-602.1014 1424.4882,-595.6053"/>
</g>
<!-- Le Monde comme il est (Bastide)&#45;&gt;Le Monde -->
<g id="edge33" class="edge">
<title>Le Monde comme il est (Bastide)&#45;&gt;Le Monde</title>
<path fill="none" stroke="#000000" d="M1685.4715,-652.901C1678.1633,-655.8053 1670.9021,-658.849 1664.1653,-661.8423"/>
<polygon fill="#000000" stroke="#000000" points="1662.3576,-658.8206 1654.7257,-666.1694 1665.2746,-665.1839 1662.3576,-658.8206"/>
</g>
<!-- Le Monde comme il est (Bastide)&#45;&gt;Le Monde comme il est (Bastide) -->
<g id="edge34" class="edge">
<title>Le Monde comme il est (Bastide)&#45;&gt;Le Monde comme il est (Bastide)</title>
<path fill="none" stroke="#000000" d="M1878.1288,-642.2851C1893.4364,-641.2178 1903.3761,-639.3043 1903.3761,-636.5446 1903.3761,-634.4532 1897.6679,-632.8478 1888.2412,-631.7284"/>
<polygon fill="#000000" stroke="#000000" points="1888.4059,-628.2289 1878.1288,-630.804 1887.7687,-635.1999 1888.4059,-628.2289"/>
</g>
<!-- Le Monde comme il est (Bastide)&#45;&gt;Le Nouveau Spectateur (Bastide) -->
<g id="edge35" class="edge">
<title>Le Monde comme il est (Bastide)&#45;&gt;Le Nouveau Spectateur (Bastide)</title>
<path fill="none" stroke="#000000" d="M1655.6962,-622.5515C1599.7422,-613.7655 1527.5051,-602.4227 1469.7688,-593.3568"/>
<polygon fill="#000000" stroke="#000000" points="1469.9545,-589.8432 1459.5326,-591.7495 1468.8686,-596.7584 1469.9545,-589.8432"/>
</g>
<!-- Le Nouveau Spectateur (Bastide)&#45;&gt;The Spectator -->
<g id="edge37" class="edge">
<title>Le Nouveau Spectateur (Bastide)&#45;&gt;The Spectator</title>
<path fill="none" stroke="#000000" d="M1333.1571,-560.367C1267.27,-529.8118 1131.4168,-466.8098 1062.0497,-434.6407"/>
<polygon fill="#000000" stroke="#000000" points="1063.2617,-431.3448 1052.7172,-430.3128 1060.3166,-437.6951 1063.2617,-431.3448"/>
</g>
<!-- Le Nouveau Spectateur (Bastide)&#45;&gt;Le Nouveau Spectateur (Bastide) -->
<g id="edge36" class="edge">
<title>Le Nouveau Spectateur (Bastide)&#45;&gt;Le Nouveau Spectateur (Bastide)</title>
<path fill="none" stroke="#000000" d="M1503.1754,-583.5533C1518.3776,-582.4861 1528.2489,-580.5725 1528.2489,-577.8128 1528.2489,-575.7214 1522.58,-574.116 1513.2182,-572.9966"/>
<polygon fill="#000000" stroke="#000000" points="1513.4541,-569.5036 1503.1754,-572.0722 1512.8125,-576.4741 1513.4541,-569.5036"/>
</g>
<!-- Le Philosophe nouvelliste -->
<g id="node23" class="node">
<title>Le Philosophe nouvelliste</title>
<ellipse fill="none" stroke="#000000" cx="1321.2381" cy="-127.6409" rx="111.1982" ry="18"/>
<text text-anchor="middle" x="1321.2381" y="-123.4409" font-family="Times,serif" font-size="14.00" fill="#000000">Le Philosophe nouvelliste</text>
</g>
<!-- Le Philosophe nouvelliste&#45;&gt;Le Philosophe nouvelliste -->
<g id="edge38" class="edge">
<title>Le Philosophe nouvelliste&#45;&gt;Le Philosophe nouvelliste</title>
<path fill="none" stroke="#000000" d="M1426.2959,-133.6641C1440.8554,-132.6721 1450.5871,-130.6643 1450.5871,-127.6409 1450.5871,-125.3969 1445.2265,-123.7125 1436.51,-122.5875"/>
<polygon fill="#000000" stroke="#000000" points="1436.582,-119.0786 1426.2959,-121.6176 1435.9202,-126.0473 1436.582,-119.0786"/>
</g>
<!-- Le Spectateur français avant la révolution -->
<g id="node24" class="node">
<title>Le Spectateur français avant la révolution</title>
<ellipse fill="none" stroke="#000000" cx="1047.5001" cy="-366.1293" rx="176.7136" ry="18"/>
<text text-anchor="middle" x="1047.5001" y="-361.9293" font-family="Times,serif" font-size="14.00" fill="#000000">Le Spectateur français avant la révolution</text>
</g>
<!-- Le Spectateur français avant la révolution&#45;&gt;The Spectator -->
<g id="edge39" class="edge">
<title>Le Spectateur français avant la révolution&#45;&gt;The Spectator</title>
<path fill="none" stroke="#000000" d="M1036.9829,-384.2506C1036.2379,-385.5343 1035.4786,-386.8426 1034.714,-388.1601"/>
<polygon fill="#000000" stroke="#000000" points="1031.6802,-386.4148 1029.6876,-396.8206 1037.7344,-389.9286 1031.6802,-386.4148"/>
</g>
<!-- Le Spectateur français ou Journal des Mœurs -->
<g id="node25" class="node">
<title>Le Spectateur français ou Journal des Mœurs</title>
<ellipse fill="none" stroke="#000000" cx="1681.4344" cy="-898.9319" rx="187.9847" ry="18"/>
<text text-anchor="middle" x="1681.4344" y="-894.7319" font-family="Times,serif" font-size="14.00" fill="#000000">Le Spectateur français ou Journal des Mœurs</text>
</g>
<!-- Le Spectateur français ou Journal des Mœurs&#45;&gt;Le Nouveau Spectateur (Bastide) -->
<g id="edge40" class="edge">
<title>Le Spectateur français ou Journal des Mœurs&#45;&gt;Le Nouveau Spectateur (Bastide)</title>
<path fill="none" stroke="#000000" d="M1663.842,-880.7471C1611.4054,-826.5448 1456.0665,-665.9752 1395.4217,-603.2884"/>
<polygon fill="#000000" stroke="#000000" points="1397.644,-600.5518 1388.1755,-595.7982 1392.613,-605.4189 1397.644,-600.5518"/>
</g>
<!-- Le Spectateur français ou le Nouveau Socrate moderne -->
<g id="node26" class="node">
<title>Le Spectateur français ou le Nouveau Socrate moderne</title>
<ellipse fill="none" stroke="#000000" cx="592.7749" cy="-377.2857" rx="227.3355" ry="18"/>
<text text-anchor="middle" x="592.7749" y="-373.0857" font-family="Times,serif" font-size="14.00" fill="#000000">Le Spectateur français ou le Nouveau Socrate moderne</text>
</g>
<!-- Le Spectateur français ou le Nouveau Socrate moderne&#45;&gt;The Spectator -->
<g id="edge42" class="edge">
<title>Le Spectateur français ou le Nouveau Socrate moderne&#45;&gt;The Spectator</title>
<path fill="none" stroke="#000000" d="M744.938,-390.6686C813.8493,-396.7294 892.0547,-403.6076 947.2811,-408.4647"/>
<polygon fill="#000000" stroke="#000000" points="947.0501,-411.9578 957.3183,-409.3475 947.6634,-404.9848 947.0501,-411.9578"/>
</g>
<!-- Le Spectateur français ou le Nouveau Socrate moderne&#45;&gt;Le Spectateur ou le Socrate moderne -->
<g id="edge41" class="edge">
<title>Le Spectateur français ou le Nouveau Socrate moderne&#45;&gt;Le Spectateur ou le Socrate moderne</title>
<path fill="none" stroke="#000000" d="M543.2671,-394.9757C461.3481,-424.2468 298.0387,-482.6002 211.183,-513.6353"/>
<polygon fill="#000000" stroke="#000000" points="209.9849,-510.3466 201.7457,-517.0074 212.3403,-516.9384 209.9849,-510.3466"/>
</g>
<!-- Le Spectateur françois pendant le gouvernement révolutionnaire -->
<g id="node27" class="node">
<title>Le Spectateur françois pendant le gouvernement révolutionnaire</title>
<ellipse fill="none" stroke="#000000" cx="1456.2644" cy="-239.7221" rx="263.5235" ry="18"/>
<text text-anchor="middle" x="1456.2644" y="-235.5221" font-family="Times,serif" font-size="14.00" fill="#000000">Le Spectateur françois pendant le gouvernement révolutionnaire</text>
</g>
<!-- Le Spectateur françois pendant le gouvernement révolutionnaire&#45;&gt;The Spectator -->
<g id="edge43" class="edge">
<title>Le Spectateur françois pendant le gouvernement révolutionnaire&#45;&gt;The Spectator</title>
<path fill="none" stroke="#000000" d="M1411.9567,-257.4725C1328.903,-290.7452 1150.5665,-362.1897 1065.8197,-396.1406"/>
<polygon fill="#000000" stroke="#000000" points="1064.4304,-392.9267 1056.4492,-399.8946 1067.0336,-399.4247 1064.4304,-392.9267"/>
</g>
<!-- Le Spectateur inconnu -->
<g id="node28" class="node">
<title>Le Spectateur inconnu</title>
<ellipse fill="none" stroke="#000000" cx="1046.7677" cy="-89.2443" rx="97.8363" ry="18"/>
<text text-anchor="middle" x="1046.7677" y="-85.0443" font-family="Times,serif" font-size="14.00" fill="#000000">Le Spectateur inconnu</text>
</g>
<!-- Le Spectateur inconnu&#45;&gt;Le Mentor moderne -->
<g id="edge44" class="edge">
<title>Le Spectateur inconnu&#45;&gt;Le Mentor moderne</title>
<path fill="none" stroke="#000000" d="M1042.9438,-107.445C1042.9244,-107.5375 1042.9049,-107.6301 1042.8854,-107.7228"/>
<polygon fill="#000000" stroke="#000000" points="1039.6869,-105.9245 1041.056,-116.4305 1046.5374,-107.3638 1039.6869,-105.9245"/>
</g>
<!-- Les Chiffons -->
<g id="node29" class="node">
<title>Les Chiffons</title>
<ellipse fill="none" stroke="#000000" cx="666.2381" cy="-787.6409" rx="61.3745" ry="18"/>
<text text-anchor="middle" x="666.2381" y="-783.4409" font-family="Times,serif" font-size="14.00" fill="#000000">Les Chiffons</text>
</g>
<!-- Les Chiffons&#45;&gt;Les Chiffons -->
<g id="edge46" class="edge">
<title>Les Chiffons&#45;&gt;Les Chiffons</title>
<path fill="none" stroke="#000000" d="M723.1836,-794.2261C736.0294,-793.6328 745.4251,-791.4378 745.4251,-787.6409 745.4251,-784.9712 740.78,-783.0934 733.5566,-782.0076"/>
<polygon fill="#000000" stroke="#000000" points="733.4617,-778.4842 723.1836,-781.0557 732.8219,-785.455 733.4617,-778.4842"/>
</g>
<!-- Lo Spettatore italiano -->
<g id="node30" class="node">
<title>Lo Spettatore italiano</title>
<ellipse fill="none" stroke="#000000" cx="418.5011" cy="-745.7051" rx="94.9187" ry="18"/>
<text text-anchor="middle" x="418.5011" y="-741.5051" font-family="Times,serif" font-size="14.00" fill="#000000">Lo Spettatore italiano</text>
</g>
<!-- Lo Spettatore italiano&#45;&gt;Le Misantrope -->
<g id="edge47" class="edge">
<title>Lo Spettatore italiano&#45;&gt;Le Misantrope</title>
<path fill="none" stroke="#000000" d="M445.1836,-728.3457C486.805,-701.2672 567.1523,-648.9939 612.9798,-619.1789"/>
<polygon fill="#000000" stroke="#000000" points="614.9171,-622.0941 621.3906,-613.7069 611.0997,-616.2266 614.9171,-622.0941"/>
</g>
<!-- Spettatore piemontese -->
<g id="node31" class="node">
<title>Spettatore piemontese</title>
<ellipse fill="none" stroke="#000000" cx="1159.4954" cy="-192.3638" rx="96.6652" ry="18"/>
<text text-anchor="middle" x="1159.4954" y="-188.1638" font-family="Times,serif" font-size="14.00" fill="#000000">Spettatore piemontese</text>
</g>
<!-- Spettatore piemontese&#45;&gt;The Spectator -->
<g id="edge49" class="edge">
<title>Spettatore piemontese&#45;&gt;The Spectator</title>
<path fill="none" stroke="#000000" d="M1148.019,-210.5663C1123.2424,-249.8639 1064.6602,-342.7799 1035.8458,-388.4817"/>
<polygon fill="#000000" stroke="#000000" points="1032.8714,-386.6369 1030.4987,-396.9626 1038.7927,-390.3702 1032.8714,-386.6369"/>
</g>
<!-- Spettatore piemontese&#45;&gt;Spettatore piemontese -->
<g id="edge48" class="edge">
<title>Spettatore piemontese&#45;&gt;Spettatore piemontese</title>
<path fill="none" stroke="#000000" d="M1250.2678,-198.5498C1264.4257,-197.625 1274.078,-195.5631 1274.078,-192.3638 1274.078,-189.9894 1268.7611,-188.2414 1260.2314,-187.1199"/>
<polygon fill="#000000" stroke="#000000" points="1260.5528,-183.6347 1250.2678,-186.1778 1259.8939,-190.6037 1260.5528,-183.6347"/>
</g>
</g>
</svg>
